<svg xmlns="http://www.w3.org/2000/svg" viewBox="0 0 750 140" width="100%" height="100%">
  <defs>
    <style type="text/css">
      @import url('https://fonts.googleapis.com/css2?family=Outfit:wght@700&amp;display=swap');
      .logo-text-main {
        font-family: 'Outfit', 'Segoe UI', sans-serif;
        font-weight: 700;
        font-size: 70px;
        fill: #ffffff;
      }
      .logo-text-accent {
        font-family: 'Outfit', 'Segoe UI', sans-serif;
        font-weight: 700;
        font-size: 70px;
        fill: #52b788;
      }
    </style>
  </defs>
  
  <!-- Icon Group scaled and positioned on the left -->
  <g fill="#7ecd8b" fill-rule="evenodd" transform="translate(10, 10) scale(0.4068)">
    <path d="M 240 0 L 242 2 L 241 3 L 242 4 L 242 7 L 243 8 L 242 9 L 243 10 L 242 11 L 243 12 L 243 14 L 244 15 L 244 18 L 243 19 L 243 20 L 244 21 L 244 39 L 243 40 L 244 41 L 243 42 L 243 46 L 242 47 L 242 48 L 243 49 L 242 50 L 242 53 L 241 54 L 241 58 L 240 59 L 241 60 L 241 61 L 239 63 L 240 64 L 240 66 L 239 67 L 239 69 L 238 70 L 238 71 L 237 71 L 236 72 L 236 75 L 235 76 L 235 77 L 233 79 L 234 80 L 233 80 L 232 81 L 232 83 L 231 84 L 231 86 L 230 86 L 227 89 L 227 90 L 225 92 L 225 93 L 222 96 L 222 97 L 221 97 L 220 98 L 220 99 L 219 99 L 217 101 L 217 102 L 216 103 L 215 103 L 214 104 L 213 104 L 212 105 L 212 106 L 211 106 L 209 108 L 208 108 L 207 109 L 207 110 L 206 111 L 204 111 L 203 112 L 202 112 L 201 113 L 200 113 L 199 114 L 198 114 L 197 115 L 196 114 L 194 116 L 191 116 L 189 118 L 186 118 L 185 119 L 184 118 L 183 118 L 181 120 L 180 120 L 179 119 L 178 120 L 173 120 L 172 121 L 171 121 L 170 122 L 167 122 L 165 124 L 164 124 L 157 131 L 157 132 L 156 133 L 156 134 L 155 135 L 155 137 L 154 138 L 154 139 L 153 140 L 153 141 L 153 140 L 154 139 L 154 134 L 155 133 L 155 129 L 156 128 L 156 126 L 157 125 L 157 122 L 158 121 L 158 119 L 159 118 L 159 117 L 160 116 L 160 115 L 161 114 L 161 111 L 162 110 L 162 109 L 164 107 L 164 106 L 165 105 L 165 104 L 167 102 L 168 102 L 169 101 L 169 100 L 171 98 L 172 98 L 173 97 L 174 97 L 175 96 L 176 96 L 177 95 L 179 95 L 181 93 L 184 93 L 185 92 L 186 93 L 187 92 L 188 92 L 189 91 L 190 91 L 191 90 L 194 90 L 196 88 L 195 87 L 187 87 L 186 88 L 182 88 L 181 89 L 180 88 L 179 89 L 177 89 L 176 90 L 174 90 L 174 88 L 175 87 L 175 86 L 176 86 L 177 85 L 176 84 L 178 82 L 178 81 L 182 77 L 182 76 L 189 69 L 189 68 L 190 68 L 192 66 L 193 66 L 194 65 L 195 65 L 196 64 L 198 64 L 199 63 L 200 63 L 201 62 L 203 62 L 204 61 L 206 61 L 207 60 L 209 60 L 210 59 L 209 58 L 204 58 L 203 59 L 201 59 L 200 58 L 199 59 L 199 57 L 200 57 L 201 56 L 200 55 L 203 52 L 204 52 L 205 51 L 205 50 L 208 47 L 208 46 L 207 45 L 204 48 L 203 48 L 197 54 L 196 54 L 188 62 L 187 62 L 186 63 L 186 64 L 179 71 L 179 72 L 176 72 L 176 62 L 175 61 L 174 62 L 174 65 L 173 65 L 172 66 L 173 67 L 173 71 L 172 72 L 172 77 L 171 77 L 170 78 L 171 79 L 170 80 L 170 81 L 168 83 L 168 85 L 167 86 L 167 87 L 166 88 L 166 89 L 165 89 L 164 90 L 164 92 L 162 94 L 162 95 L 161 96 L 161 97 L 159 99 L 159 100 L 158 101 L 158 102 L 157 103 L 157 104 L 154 107 L 154 109 L 152 111 L 152 113 L 151 114 L 151 115 L 150 115 L 149 114 L 149 112 L 148 111 L 148 109 L 147 108 L 147 106 L 146 105 L 146 101 L 145 100 L 145 77 L 146 76 L 146 73 L 145 72 L 146 72 L 147 71 L 146 70 L 146 68 L 147 67 L 147 65 L 149 63 L 148 62 L 149 62 L 150 61 L 149 60 L 150 59 L 150 58 L 151 57 L 151 56 L 154 53 L 153 52 L 154 52 L 155 51 L 154 50 L 155 49 L 154 48 L 156 48 L 157 47 L 157 46 L 158 45 L 158 44 L 159 43 L 160 43 L 164 39 L 164 38 L 165 38 L 169 34 L 169 33 L 171 33 L 173 31 L 173 30 L 175 30 L 176 29 L 176 28 L 178 26 L 180 26 L 181 25 L 183 25 L 185 23 L 187 23 L 189 21 L 190 21 L 191 20 L 192 21 L 193 20 L 193 19 L 194 20 L 195 19 L 197 19 L 198 18 L 199 18 L 201 16 L 202 17 L 203 16 L 205 16 L 207 14 L 208 15 L 209 14 L 209 13 L 213 13 L 215 11 L 215 10 L 218 10 L 219 11 L 221 9 L 223 9 L 224 8 L 226 8 L 227 7 L 228 7 L 229 6 L 230 6 L 232 4 L 233 5 L 234 4 L 234 3 L 235 2 L 236 3 L 237 2 L 237 1 L 238 2 L 239 1 L 240 0 Z" />
    <path d="M 130 44 L 131 44 L 132 45 L 134 45 L 135 46 L 141 46 L 142 47 L 143 47 L 143 48 L 142 49 L 143 50 L 143 51 L 142 52 L 142 53 L 141 54 L 141 55 L 140 56 L 140 58 L 139 59 L 139 61 L 138 62 L 138 63 L 137 64 L 137 65 L 136 66 L 136 68 L 135 69 L 133 69 L 132 68 L 120 68 L 119 69 L 116 69 L 115 68 L 114 69 L 111 69 L 110 68 L 109 69 L 106 69 L 105 70 L 101 70 L 100 71 L 97 71 L 96 72 L 92 72 L 90 74 L 87 74 L 86 75 L 85 75 L 84 76 L 83 76 L 82 77 L 80 77 L 78 79 L 76 79 L 75 80 L 74 80 L 72 82 L 70 82 L 69 83 L 69 84 L 67 84 L 66 85 L 66 86 L 64 86 L 62 88 L 62 89 L 61 89 L 55 95 L 54 95 L 49 100 L 49 101 L 48 102 L 47 102 L 46 103 L 46 104 L 44 106 L 44 107 L 41 110 L 41 111 L 40 112 L 40 113 L 39 114 L 39 115 L 36 118 L 36 120 L 34 122 L 34 124 L 32 126 L 32 128 L 31 129 L 31 131 L 30 132 L 30 134 L 29 135 L 29 136 L 28 137 L 28 140 L 27 141 L 27 143 L 26 144 L 26 151 L 25 152 L 25 166 L 24 167 L 24 168 L 25 169 L 25 177 L 26 178 L 26 184 L 27 185 L 27 187 L 28 188 L 28 191 L 30 193 L 33 190 L 33 189 L 35 187 L 35 186 L 39 182 L 39 181 L 41 179 L 41 178 L 44 175 L 44 174 L 45 173 L 45 172 L 46 171 L 46 170 L 47 170 L 48 169 L 48 168 L 49 167 L 49 166 L 50 165 L 50 164 L 53 161 L 53 160 L 56 157 L 56 156 L 57 155 L 57 154 L 58 154 L 59 153 L 59 151 L 61 149 L 61 148 L 62 147 L 62 146 L 63 145 L 64 145 L 65 146 L 66 146 L 66 147 L 67 148 L 67 149 L 68 150 L 68 151 L 72 155 L 72 156 L 73 157 L 73 158 L 77 162 L 76 163 L 77 164 L 78 164 L 80 166 L 80 167 L 82 169 L 87 164 L 87 163 L 89 161 L 89 160 L 92 157 L 91 156 L 96 151 L 96 150 L 98 148 L 98 146 L 99 146 L 100 145 L 100 144 L 101 143 L 101 142 L 105 138 L 105 136 L 106 136 L 107 135 L 107 134 L 109 132 L 109 130 L 110 130 L 111 129 L 110 128 L 111 128 L 112 127 L 112 126 L 113 126 L 114 125 L 113 124 L 114 123 L 115 123 L 116 122 L 116 121 L 118 119 L 118 118 L 119 117 L 120 117 L 122 119 L 122 120 L 124 122 L 125 122 L 124 123 L 125 124 L 126 124 L 127 125 L 127 127 L 129 129 L 129 130 L 130 131 L 131 131 L 131 133 L 133 135 L 133 136 L 134 137 L 135 137 L 135 138 L 136 139 L 136 140 L 140 144 L 140 145 L 143 148 L 143 149 L 144 150 L 144 151 L 147 154 L 147 155 L 149 157 L 149 158 L 152 161 L 152 162 L 153 163 L 153 164 L 154 165 L 154 166 L 157 169 L 158 169 L 160 167 L 160 166 L 162 164 L 162 163 L 165 160 L 165 159 L 168 156 L 168 154 L 170 152 L 170 151 L 172 149 L 172 148 L 173 147 L 173 146 L 174 146 L 175 145 L 176 146 L 177 146 L 177 147 L 179 149 L 179 150 L 180 151 L 180 152 L 183 155 L 183 156 L 185 158 L 185 159 L 187 161 L 187 162 L 188 163 L 188 164 L 193 169 L 193 170 L 195 172 L 195 173 L 197 175 L 197 177 L 198 178 L 199 178 L 199 179 L 201 181 L 201 182 L 205 186 L 205 187 L 206 188 L 206 189 L 210 193 L 212 191 L 212 190 L 213 189 L 213 184 L 214 183 L 214 179 L 215 178 L 215 153 L 214 152 L 214 147 L 213 146 L 213 143 L 212 142 L 212 139 L 211 138 L 211 136 L 210 135 L 210 133 L 209 132 L 209 129 L 208 128 L 208 126 L 207 125 L 207 124 L 206 123 L 206 122 L 207 122 L 208 121 L 208 120 L 209 120 L 211 118 L 212 118 L 214 116 L 215 116 L 217 114 L 218 114 L 219 113 L 220 113 L 223 110 L 224 110 L 225 109 L 225 108 L 226 109 L 226 110 L 227 111 L 227 112 L 228 113 L 229 113 L 230 114 L 230 116 L 231 117 L 231 119 L 232 120 L 232 123 L 233 124 L 233 125 L 234 126 L 234 127 L 235 128 L 235 131 L 236 132 L 236 135 L 237 136 L 237 139 L 238 140 L 238 145 L 239 146 L 239 152 L 240 153 L 240 177 L 239 178 L 239 187 L 238 188 L 238 190 L 237 191 L 237 193 L 236 194 L 236 197 L 235 198 L 235 199 L 234 200 L 234 203 L 233 204 L 233 206 L 232 207 L 232 209 L 231 210 L 231 211 L 230 212 L 230 213 L 229 214 L 229 215 L 228 216 L 228 218 L 227 219 L 227 220 L 225 222 L 225 223 L 224 224 L 224 225 L 223 226 L 223 227 L 220 230 L 220 231 L 219 232 L 219 233 L 216 236 L 216 237 L 210 243 L 210 244 L 209 244 L 208 245 L 208 246 L 200 254 L 199 254 L 195 258 L 194 258 L 190 262 L 189 262 L 185 266 L 184 266 L 182 268 L 181 268 L 180 269 L 179 269 L 177 271 L 175 271 L 174 272 L 173 272 L 172 273 L 171 273 L 170 274 L 169 274 L 168 275 L 166 275 L 165 276 L 164 276 L 163 277 L 161 277 L 160 278 L 159 278 L 158 279 L 156 279 L 155 280 L 153 280 L 152 281 L 151 281 L 150 282 L 147 282 L 146 283 L 142 283 L 141 284 L 137 284 L 136 285 L 130 285 L 129 286 L 112 286 L 111 285 L 105 285 L 104 284 L 100 284 L 99 283 L 95 283 L 94 282 L 92 282 L 91 281 L 88 281 L 87 280 L 85 280 L 84 279 L 83 279 L 82 278 L 80 278 L 79 277 L 78 277 L 77 276 L 75 276 L 74 275 L 73 275 L 72 274 L 69 274 L 68 275 L 66 275 L 65 276 L 63 276 L 62 277 L 61 277 L 60 278 L 58 278 L 57 279 L 55 279 L 54 280 L 53 280 L 52 281 L 51 281 L 50 282 L 48 282 L 47 283 L 46 283 L 45 284 L 42 284 L 41 285 L 40 285 L 39 286 L 36 286 L 35 287 L 33 287 L 32 288 L 30 288 L 29 289 L 28 289 L 27 290 L 26 290 L 25 291 L 23 291 L 22 292 L 20 292 L 19 293 L 17 293 L 16 294 L 14 294 L 14 291 L 15 290 L 15 286 L 16 285 L 16 280 L 17 279 L 17 276 L 18 275 L 18 272 L 19 271 L 19 267 L 20 266 L 20 263 L 21 262 L 21 257 L 22 256 L 22 253 L 23 252 L 23 250 L 24 249 L 24 246 L 25 245 L 25 241 L 26 240 L 25 239 L 25 237 L 22 234 L 22 233 L 20 231 L 20 230 L 17 227 L 17 225 L 16 224 L 16 223 L 14 221 L 14 220 L 13 219 L 13 218 L 12 217 L 12 215 L 11 214 L 11 213 L 10 212 L 10 211 L 9 210 L 9 208 L 7 206 L 7 204 L 6 203 L 6 201 L 5 200 L 5 199 L 4 198 L 4 195 L 3 194 L 3 192 L 2 191 L 2 185 L 1 184 L 1 178 L 0 177 L 0 153 L 1 152 L 1 145 L 2 144 L 2 142 L 3 141 L 3 135 L 4 134 L 4 133 L 5 132 L 5 129 L 6 128 L 6 126 L 7 125 L 7 123 L 8 122 L 8 121 L 9 120 L 9 117 L 10 116 L 10 115 L 12 113 L 12 112 L 13 111 L 13 109 L 14 108 L 14 107 L 16 105 L 16 104 L 17 103 L 17 102 L 18 101 L 18 100 L 19 99 L 19 98 L 21 96 L 21 95 L 25 91 L 25 90 L 29 86 L 29 85 L 37 77 L 38 77 L 42 73 L 42 72 L 43 72 L 46 69 L 47 69 L 50 66 L 51 66 L 53 64 L 54 64 L 55 63 L 56 63 L 57 62 L 58 62 L 59 61 L 60 61 L 61 60 L 61 59 L 62 59 L 63 58 L 64 58 L 65 57 L 67 57 L 69 55 L 71 55 L 73 53 L 74 53 L 75 52 L 77 52 L 78 51 L 80 51 L 81 50 L 82 51 L 84 49 L 89 49 L 90 48 L 92 48 L 93 47 L 97 47 L 98 46 L 103 46 L 104 45 L 129 45 L 130 44 Z" />
    <path d="M 211 57 L 210 57 L 209 58 L 210 59 L 211 59 L 212 58 L 211 57 Z" />
    <path d="M 197 86 L 196 86 L 195 87 L 196 88 L 198 88 L 199 87 L 198 86 L 197 86 Z" />
    <path d="M 69 92 L 70 93 L 71 93 L 75 97 L 75 98 L 76 99 L 77 98 L 77 99 L 78 100 L 79 100 L 81 102 L 82 102 L 87 107 L 88 107 L 90 109 L 91 109 L 92 108 L 92 106 L 93 105 L 93 104 L 94 103 L 94 102 L 95 101 L 95 100 L 98 97 L 98 96 L 99 96 L 100 95 L 99 94 L 100 93 L 102 93 L 102 95 L 101 96 L 101 98 L 102 99 L 102 100 L 101 101 L 101 102 L 102 103 L 100 105 L 100 106 L 99 107 L 99 109 L 98 110 L 99 111 L 100 111 L 101 112 L 102 112 L 102 113 L 103 114 L 103 115 L 102 115 L 101 116 L 101 117 L 100 116 L 99 117 L 99 118 L 98 118 L 97 119 L 98 120 L 97 121 L 97 122 L 96 122 L 95 123 L 94 122 L 92 124 L 89 124 L 88 125 L 86 125 L 85 126 L 83 126 L 82 127 L 82 128 L 80 128 L 79 129 L 74 129 L 73 128 L 72 128 L 71 127 L 72 127 L 73 126 L 74 126 L 75 125 L 77 125 L 78 124 L 79 124 L 80 123 L 81 123 L 83 121 L 83 119 L 79 115 L 79 114 L 75 110 L 75 108 L 71 104 L 71 103 L 69 101 L 70 100 L 69 99 L 69 98 L 70 97 L 69 96 L 70 95 L 69 94 L 69 93 L 69 92 Z" />
    <path d="M 121 136 L 120 136 L 119 137 L 119 138 L 118 139 L 118 143 L 116 145 L 117 146 L 116 147 L 117 148 L 117 151 L 116 152 L 116 155 L 117 156 L 117 157 L 116 158 L 116 159 L 117 160 L 116 161 L 117 162 L 116 163 L 117 164 L 117 166 L 118 167 L 118 169 L 119 170 L 118 171 L 118 172 L 119 173 L 119 175 L 120 176 L 120 183 L 119 184 L 119 186 L 118 187 L 118 189 L 116 191 L 116 192 L 111 197 L 111 198 L 110 198 L 106 202 L 105 202 L 93 214 L 93 215 L 92 216 L 93 217 L 94 217 L 95 216 L 96 216 L 99 213 L 100 213 L 101 212 L 102 212 L 103 211 L 104 211 L 105 210 L 107 210 L 108 209 L 109 209 L 111 207 L 112 207 L 113 206 L 113 205 L 114 204 L 115 204 L 119 200 L 120 200 L 124 196 L 124 195 L 128 191 L 128 190 L 129 189 L 129 188 L 130 187 L 130 186 L 132 184 L 132 182 L 133 181 L 133 180 L 134 180 L 134 182 L 136 184 L 136 185 L 138 187 L 138 188 L 140 190 L 140 191 L 143 194 L 143 195 L 146 198 L 146 199 L 149 202 L 149 203 L 155 209 L 155 210 L 157 212 L 157 213 L 158 214 L 158 215 L 159 216 L 159 217 L 160 218 L 160 223 L 161 224 L 161 236 L 160 237 L 160 239 L 159 240 L 159 241 L 158 242 L 158 243 L 156 245 L 156 246 L 150 252 L 149 252 L 148 253 L 148 254 L 147 255 L 148 256 L 149 256 L 150 255 L 152 255 L 153 254 L 155 254 L 156 253 L 157 253 L 158 252 L 159 252 L 160 251 L 161 251 L 162 250 L 163 250 L 164 249 L 165 249 L 167 247 L 168 247 L 169 246 L 170 246 L 172 244 L 173 244 L 175 242 L 176 242 L 181 237 L 182 237 L 183 236 L 184 236 L 186 234 L 186 233 L 194 225 L 194 224 L 197 221 L 197 220 L 199 218 L 199 217 L 201 215 L 201 214 L 202 213 L 202 212 L 203 211 L 203 210 L 205 208 L 205 206 L 203 204 L 203 203 L 202 202 L 202 201 L 201 200 L 201 199 L 198 196 L 198 195 L 196 193 L 196 192 L 193 189 L 193 188 L 191 186 L 191 185 L 189 183 L 189 181 L 188 180 L 187 180 L 187 178 L 186 177 L 185 177 L 185 176 L 184 175 L 184 174 L 183 173 L 182 173 L 182 172 L 181 171 L 181 170 L 179 168 L 179 167 L 178 166 L 177 166 L 177 165 L 176 164 L 175 164 L 172 167 L 172 168 L 169 171 L 169 172 L 168 173 L 168 174 L 166 176 L 166 177 L 165 178 L 165 182 L 167 184 L 167 185 L 168 186 L 168 187 L 171 190 L 171 191 L 173 193 L 173 194 L 176 197 L 176 198 L 178 200 L 178 201 L 180 203 L 180 205 L 183 208 L 183 209 L 182 208 L 181 208 L 180 207 L 179 207 L 178 206 L 177 206 L 176 205 L 175 205 L 174 204 L 173 204 L 169 200 L 168 200 L 160 192 L 160 191 L 156 187 L 156 186 L 153 183 L 153 182 L 151 180 L 151 179 L 148 176 L 148 175 L 146 173 L 146 172 L 145 171 L 145 170 L 142 167 L 143 166 L 141 164 L 140 164 L 140 162 L 139 161 L 139 160 L 136 157 L 136 156 L 134 154 L 134 153 L 133 152 L 132 152 L 132 150 L 131 149 L 130 149 L 129 148 L 130 147 L 129 146 L 128 146 L 128 144 L 127 143 L 126 143 L 125 142 L 125 141 L 123 139 L 123 138 L 122 137 L 121 136 Z" />
    <path d="M 65 165 L 64 165 L 63 166 L 63 167 L 62 168 L 63 169 L 62 170 L 62 177 L 63 178 L 63 187 L 62 188 L 62 191 L 61 192 L 61 193 L 60 194 L 60 195 L 59 196 L 59 197 L 58 198 L 58 200 L 56 202 L 57 203 L 58 203 L 65 196 L 65 195 L 69 191 L 69 190 L 71 188 L 71 187 L 72 186 L 72 185 L 74 183 L 74 182 L 75 181 L 75 177 L 73 175 L 73 174 L 71 172 L 70 172 L 70 171 L 69 170 L 69 169 L 68 168 L 68 167 L 66 165 L 65 165 Z" />
  </g>
  
  <!-- Brand Text -->
  <text x="160" y="94">
    <tspan class="logo-text-main">NepaliEcoChat</tspan>
    <tspan class="logo-text-accent">.bot</tspan>
  </text>
</svg>
